<svg width="22" height="22" viewBox="0 0 22 22" fill="none" xmlns="http://www.w3.org/2000/svg">
<circle cx="11" cy="11" r="11" fill="#2F89CE"/>
<path d="M5.14308 11.2058L7.67204 12.1488L8.65789 15.3207C8.70075 15.5351 8.95794 15.5779 9.12939 15.4493L10.5439 14.292C10.6725 14.1634 10.8868 14.1634 11.0582 14.292L13.5872 16.1351C13.7586 16.2637 14.0158 16.178 14.0587 15.9637L15.9447 6.96236C15.9875 6.74804 15.7732 6.53373 15.5589 6.61945L5.14308 10.6486C4.8859 10.7343 4.8859 11.1201 5.14308 11.2058ZM8.5293 11.6773L13.5015 8.63403C13.5872 8.59117 13.6729 8.71976 13.5872 8.76263L9.51516 12.5775C9.38657 12.7061 9.25798 12.8775 9.25798 13.0918L9.12939 14.1206C9.12939 14.2491 8.91507 14.292 8.87221 14.1206L8.35784 12.2346C8.22925 12.0202 8.31499 11.7631 8.5293 11.6773Z" fill="white"/>
</svg>
