<svg width="22" height="22" viewBox="0 0 22 22" fill="none" xmlns="http://www.w3.org/2000/svg">
<circle cx="11" cy="11" r="11" fill="#7C509A"/>
<path d="M14.4397 5.80025C12.3433 5.39992 10.1664 5.39992 8.07003 5.80025C7.1428 6.00042 5.97369 7.12136 5.77212 8.0021C5.40929 9.72355 5.40929 11.485 5.77212 13.2065C6.01401 14.0872 7.18311 15.2082 8.07003 15.4083C8.11034 15.4083 8.15065 15.4484 8.15065 15.4884V18.0105C8.15065 18.1306 8.31191 18.2107 8.39254 18.0906L9.60196 16.8495C9.60196 16.8495 10.5695 15.8487 10.7308 15.6886C10.7308 15.6886 10.7711 15.6485 10.8114 15.6485C12.0208 15.6886 13.2705 15.5685 14.48 15.3683C15.4072 15.1681 16.5763 14.0472 16.7779 13.1664C17.1407 11.445 17.1407 9.68352 16.7779 7.96207C16.536 7.12136 15.3669 6.00042 14.4397 5.80025ZM14.48 13.3266C14.2784 13.7269 14.0365 14.0472 13.6334 14.2474C13.5124 14.2874 13.3915 14.3274 13.2705 14.3675C13.1093 14.3274 12.9884 14.2874 12.8674 14.2474C11.5774 13.7269 10.3679 13.0063 9.40039 11.9654C8.87631 11.3649 8.43285 10.6844 8.07003 9.96375C7.90877 9.60345 7.74751 9.28318 7.62657 8.92288C7.50563 8.60261 7.7072 8.28234 7.90877 8.04214C8.11034 7.80194 8.35222 7.6418 8.63442 7.5217C8.83599 7.4016 9.03757 7.48167 9.19882 7.6418C9.52134 8.04214 9.84385 8.44247 10.0857 8.88284C10.247 9.16308 10.2067 9.48335 9.92447 9.68352C9.84385 9.72355 9.80353 9.76359 9.7229 9.84365C9.68259 9.88369 9.60196 9.92372 9.56165 10.0038C9.48102 10.1239 9.48102 10.244 9.52133 10.3641C9.84385 11.2849 10.4486 12.0055 11.3758 12.4058C11.537 12.4859 11.658 12.5259 11.8596 12.5259C12.1418 12.4859 12.2627 12.1656 12.4643 12.0055C12.6658 11.8453 12.9077 11.8453 13.1496 11.9654C13.3512 12.0855 13.5527 12.2457 13.7946 12.4058C13.9962 12.5659 14.1978 12.686 14.3993 12.8462C14.5203 12.9262 14.5606 13.1264 14.48 13.3266ZM12.7868 10.3241C12.7061 10.3241 12.7465 10.3241 12.7868 10.3241C12.6255 10.3241 12.5852 10.244 12.5449 10.1239C12.5449 10.0438 12.5449 9.92372 12.5046 9.84365C12.4643 9.68352 12.3836 9.52338 12.2224 9.40328C12.1418 9.36325 12.0611 9.32322 11.9805 9.28318C11.8596 9.24315 11.7789 9.24315 11.658 9.24315C11.537 9.20311 11.4967 9.12305 11.4967 9.00295C11.4967 8.92288 11.6177 8.84281 11.6983 8.84281C12.3433 8.88285 12.8271 9.24315 12.9077 10.0038C12.9077 10.0438 12.9077 10.1239 12.9077 10.1639C12.9077 10.244 12.8674 10.3241 12.7868 10.3241ZM12.3836 8.56258C12.1821 8.48251 11.9805 8.40244 11.7386 8.36241C11.658 8.36241 11.537 8.32237 11.4564 8.32237C11.3355 8.32237 11.2548 8.24231 11.2952 8.12221C11.2952 8.0021 11.3758 7.92204 11.4967 7.96207C11.8999 8.0021 12.2627 8.08217 12.6255 8.24231C13.3512 8.60261 13.7543 9.20311 13.8753 10.0038C13.8753 10.0438 13.8753 10.0839 13.8753 10.1239C13.8753 10.204 13.8753 10.284 13.8753 10.4041C13.8753 10.4442 13.8753 10.4842 13.8753 10.5242C13.8349 10.6844 13.5527 10.7244 13.5124 10.5242C13.5124 10.4842 13.4721 10.4041 13.4721 10.3641C13.4721 10.0038 13.3915 9.64348 13.2302 9.32322C12.9884 8.96291 12.7061 8.72271 12.3836 8.56258ZM14.5606 10.9646C14.4397 10.9646 14.359 10.8445 14.359 10.7244C14.359 10.4842 14.3187 10.244 14.2784 10.0038C14.1171 8.72271 13.069 7.68183 11.8192 7.48167C11.6177 7.44163 11.4161 7.44163 11.2548 7.4016C11.1339 7.4016 10.9726 7.4016 10.9323 7.24146C10.892 7.12136 11.013 7.00126 11.1339 7.00126C11.1742 7.00126 11.2145 7.00126 11.2145 7.00126C12.8674 7.0413 11.2952 7.00126 11.2145 7.00126C12.9077 7.0413 14.3187 8.16224 14.6009 9.84365C14.6412 10.1239 14.6815 10.4041 14.6815 10.7244C14.7622 10.8445 14.6815 10.9646 14.5606 10.9646Z" fill="white"/>
</svg>
