<svg width="314" height="60" viewBox="0 0 314 60" fill="none" xmlns="http://www.w3.org/2000/svg">
<path d="M67.4844 24.5902H88.014V29.0038H73.3356V31.5259H87.0556V35.763H73.3356V39.0164H67.5096V24.5902H67.4844Z" fill="white"/>
<path d="M107.837 38.9156C106.349 39.2939 104.382 39.4704 101.911 39.4704C100.927 39.4704 99.9181 39.4452 98.884 39.3695C96.6142 39.2182 94.8235 38.7138 93.512 37.8815C91.9483 36.8727 91.1665 35.2838 91.1665 33.14V24.5902H96.9925V32.5095C96.9925 33.8966 97.7491 34.7541 99.2876 35.0568C99.8929 35.1577 100.75 35.2333 101.885 35.2333C102.289 35.2333 102.718 35.2333 103.146 35.2081C103.6 35.1829 104.029 35.1325 104.458 35.0568C104.887 34.9811 105.265 34.8298 105.618 34.6533C105.971 34.4515 106.248 34.1993 106.45 33.8462C106.652 33.4931 106.753 33.0644 106.753 32.5347V24.5902H112.579V33.14C112.655 36.1917 111.04 38.1337 107.837 38.9156Z" fill="white"/>
<path d="M123.424 24.5902L131.848 33.0896V24.5902H137.674V38.9912H130.461L122.037 30.4918V38.9912H116.211V24.5902H123.424Z" fill="white"/>
<path d="M155.328 38.9912L155.303 39.0417L141.28 38.9912V24.5902H155.328C156.387 24.5902 157.447 24.7668 158.456 25.0946C159.49 25.4477 160.322 25.9017 160.952 26.4818C162.541 27.9698 163.348 29.7352 163.348 31.7781C163.348 33.821 162.541 35.5864 160.952 37.0744C160.322 37.6545 159.49 38.1337 158.456 38.4616C157.422 38.8147 156.387 38.9912 155.328 38.9912ZM157.497 31.7781C157.497 30.7188 157.169 29.9622 156.539 29.5082C156.06 29.1552 155.48 28.9786 154.849 28.9786H147.106V34.5776H154.849C155.48 34.5776 156.06 34.4011 156.539 34.048C157.195 33.594 157.497 32.8374 157.497 31.7781Z" fill="white"/>
<path d="M163.676 38.9912L172.428 24.5649H179.843L188.569 38.9912H181.482L180.524 37.1501H171.747L170.763 38.9912H163.676ZM178.304 32.913L176.135 28.802L173.966 32.913H178.304Z" fill="white"/>
<path d="M197.295 31.0215L197.018 30.2397V39.0165H191.192V24.6155H199.54L203.954 33.5688L208.367 24.6155H216.69V39.0165H210.864V30.2397L210.587 31.0215L206.602 38.9913H201.204L197.295 31.0215Z" fill="white"/>
<path d="M226.097 34.7541H240.776V38.9912H220.246V24.5902H240.599V28.8021H226.072V30.164H239.792V33.3418H226.072V34.7541H226.097Z" fill="white"/>
<path d="M251.469 24.5902L259.893 33.0896V24.5902H265.719V38.9912H258.506L250.082 30.4918V38.9912H244.256V24.5902H251.469Z" fill="white"/>
<path d="M268.342 28.9786V24.5649H290.082V28.9786H282.137V38.966H276.312V28.9786H268.342Z" fill="white"/>
<path d="M288.872 38.9912L297.623 24.5649H305.038L313.764 38.9912H306.677L305.719 37.1501H296.942L295.959 38.9912H288.872ZM303.474 32.913L301.305 28.802L299.136 32.913H303.474Z" fill="white"/>
<path d="M33.9407 60C32.2762 60 30.7881 59.1425 29.9559 57.7049L0.624212 6.91046C-0.208071 5.47289 -0.208071 3.75788 0.624212 2.29508C1.45649 0.832284 2.94451 0 4.60908 0H63.2472C64.9117 0 66.3997 0.857505 67.232 2.29508C68.0643 3.73266 68.0643 5.44767 67.232 6.91046L37.9256 57.6797C37.0933 59.1173 35.6053 60 33.9407 60ZM4.60908 2.87516C3.70113 2.87516 3.27238 3.48045 3.12106 3.73266C2.96974 3.98486 2.66709 4.69104 3.12106 5.47288L32.4527 56.2673C32.9067 57.0492 33.6633 57.1248 33.9407 57.1248C34.2434 57.1248 35 57.0492 35.4288 56.2673L36.6646 56.9987L35.4288 56.2673L64.7604 5.47288C65.2144 4.69104 64.9117 4.01009 64.7604 3.73266C64.6091 3.48045 64.1551 2.87516 63.2724 2.87516H4.60908Z" fill="white"/>
<path d="M55.4542 12.9129L17.7745 22.2194L19.2877 19.4955L13.3608 8.27234H54.521L52.9321 11.2484L55.4542 12.9129Z" fill="white"/>
<path d="M46.2485 24.0099L47.5599 24.8674L23.676 30.7942L24.4326 29.3062L21.4565 23.6568L50.1577 16.5446L46.2485 24.0099Z" fill="white"/>
<path d="M40.8009 34.3755L42.415 35.4096L27.6105 39.0918L28.6193 37.2507L26.2485 32.7866L43.9282 28.4235L40.8009 34.3755Z" fill="white"/>
<path d="M38.3545 38.991L34.4453 46.4563L33.9409 47.4147L30.5361 40.933L38.3545 38.991Z" fill="white"/>
</svg>
